<?xml version="1.0" encoding="UTF-8" standalone="no"?>
<!-- Created with Inkscape (http://www.inkscape.org/) -->

<svg
   xmlns:dc="http://purl.org/dc/elements/1.1/"
   xmlns:cc="http://creativecommons.org/ns#"
   xmlns:rdf="http://www.w3.org/1999/02/22-rdf-syntax-ns#"
   xmlns:svg="http://www.w3.org/2000/svg"
   xmlns="http://www.w3.org/2000/svg"
   xmlns:xlink="http://www.w3.org/1999/xlink"
   xmlns:sodipodi="http://sodipodi.sourceforge.net/DTD/sodipodi-0.dtd"
   xmlns:inkscape="http://www.inkscape.org/namespaces/inkscape"
   width="524.40942"
   height="372.04724"
   id="svg2"
   version="1.1"
   inkscape:version="0.48.4 r9939"
   sodipodi:docname="New document 1">
  <defs
     id="defs4">
    <linearGradient
       id="linearGradient3005"
       spreadMethod="pad"
       gradientTransform="matrix(0,-145.31924,280.42129,0,300.3052,462.1453)"
       gradientUnits="userSpaceOnUse"
       y2="0"
       x2="0.77999997"
       y1="0"
       x1="0.22">
      <stop
         id="stop3007"
         offset="0"
         style="stop-opacity:1;stop-color:#99cccc" />
      <stop
         id="stop3009"
         offset="1"
         style="stop-opacity:1;stop-color:#ffffff" />
    </linearGradient>
    <linearGradient
       inkscape:collect="always"
       xlink:href="#linearGradient3005"
       id="linearGradient3417"
       gradientUnits="userSpaceOnUse"
       gradientTransform="matrix(0,-145.31924,280.42129,0,300.3052,462.1453)"
       spreadMethod="pad"
       x1="0.22"
       y1="0"
       x2="0.77999997"
       y2="0" />
  </defs>
  <sodipodi:namedview
     id="base"
     pagecolor="#ffffff"
     bordercolor="#666666"
     borderopacity="1.0"
     inkscape:pageopacity="0.0"
     inkscape:pageshadow="2"
     inkscape:zoom="1.2865234"
     inkscape:cx="282.11401"
     inkscape:cy="520"
     inkscape:document-units="px"
     inkscape:current-layer="layer5"
     showgrid="false"
     inkscape:window-width="1920"
     inkscape:window-height="1138"
     inkscape:window-x="1912"
     inkscape:window-y="-8"
     inkscape:window-maximized="1" />
  <metadata
     id="metadata7">
    <rdf:RDF>
      <cc:Work
         rdf:about="">
        <dc:format>image/svg+xml</dc:format>
        <dc:type
           rdf:resource="http://purl.org/dc/dcmitype/StillImage" />
        <dc:title></dc:title>
      </cc:Work>
    </rdf:RDF>
  </metadata>
  <g
     inkscape:label="Layer 1"
     inkscape:groupmode="layer"
     id="layer1"
     transform="translate(0,-680.31491)">
    <g
       id="g2995"
       transform="matrix(1.25,0,0,-1.25,-275.41916,1332.197)">
      <g
         id="g2997">
        <g
           id="g3003">
          <path
             inkscape:connector-curvature="0"
             d="m 559.893,428.5474 -259.5878,0 0,-111.7213 259.5878,0 0,111.7213 z"
             style="fill:url(#linearGradient3417);fill-rule:evenodd;stroke:none"
             id="path3011" />
        </g>
      </g>
    </g>
  </g>
  <g
     inkscape:groupmode="layer"
     id="layer3"
     inkscape:label="plane1"
     style="display:inline"
     transform="translate(0,-680.31491)">
    <path
       inkscape:connector-curvature="0"
       d="m 424.44709,873.40598 c -101.31588,-32.85912 -209.4775,17.79875 -324.484753,0 0,20.91938 0,41.83875 0,62.75837 108.161633,0 216.323123,0 324.484753,0 0,-20.91962 0,-41.83899 0,-62.75837"
       style="fill:#91adad;fill-opacity:1;fill-rule:evenodd;stroke:none"
       id="path3013" />
    <path
       inkscape:connector-curvature="0"
       d="m 309.51746,835.05936 c -3.23262,0.636 -5.90175,2.52275 -7.60362,5.05875 -1.70188,2.53587 -2.43675,5.721 -1.80038,8.9535 0.63638,3.23262 2.52326,5.90175 5.05913,7.60362 2.536,1.70188 5.721,2.43638 8.95362,1.80038 3.23213,-0.63638 5.90138,-2.52326 7.60325,-5.05913 1.70175,-2.536 2.43676,-5.721 1.80025,-8.95362 -0.63637,-3.2325 -2.52312,-5.90175 -5.05912,-7.6035 -2.53588,-1.70188 -5.721,-2.43638 -8.95313,-1.8"
       style="fill:#91adad;fill-opacity:1;fill-rule:evenodd;stroke:none"
       id="path3015" />
    <path
       inkscape:connector-curvature="0"
       d="m 314.72259,848.64111 -3.5285,1.16687 1.9205,16.39587 3.52875,-1.16675 -1.92075,-16.39599 z"
       style="fill:#91adad;fill-opacity:1;fill-rule:evenodd;stroke:none"
       id="path3017" />
    <path
       inkscape:connector-curvature="0"
       d="m 375.71984,841.89898 c -2.83213,0.0336 -5.38337,1.2125 -7.218,3.09113 -1.83475,1.87862 -2.95275,4.45675 -2.919,7.28937 0.0332,2.8325 1.2125,5.38362 3.09075,7.218 1.87875,1.83475 4.45713,2.95262 7.28938,2.91938 2.8325,-0.0338 5.38362,-1.2125 7.21837,-3.09125 1.83438,-1.87863 2.95263,-4.45675 2.919,-7.28925 -0.0336,-2.8325 -1.2125,-5.38375 -3.09125,-7.21813 -1.87825,-1.83462 -4.45675,-2.95262 -7.28925,-2.91925"
       style="fill:#91adad;fill-opacity:1;fill-rule:evenodd;stroke:none"
       id="path3019" />
    <path
       inkscape:connector-curvature="0"
       d="m 378.46446,854.28035 -5.19475,0.0616 0.17038,14.36638 5.1945,-0.0617 -0.17013,-14.36625 z"
       style="fill:#91adad;fill-opacity:1;fill-rule:evenodd;stroke:none"
       id="path3021" />
    <path
       inkscape:connector-curvature="0"
       d="m 326.64546,846.02798 c -1.9035,0.14 -3.57025,1.03888 -4.72612,2.37863 -1.15587,1.33974 -1.80075,3.11987 -1.66037,5.02362 0.14,1.9035 1.03887,3.57025 2.37862,4.72612 1.33937,1.15588 3.11988,1.80075 5.02338,1.66038 1.90337,-0.14025 3.57024,-1.03888 4.726,-2.37863 1.15587,-1.33975 1.80075,-3.12025 1.66075,-5.02362 -0.14025,-1.9035 -1.03925,-3.57025 -2.37863,-4.72612 -1.33975,-1.15588 -3.12025,-1.80076 -5.02362,-1.66038"
       style="fill:#91adad;fill-opacity:1;fill-rule:evenodd;stroke:none"
       id="path3023" />
    <path
       inkscape:connector-curvature="0"
       d="m 328.16084,854.24061 -1.37013,0.25725 0.27913,9.65487 1.36987,-0.25687 -0.27887,-9.65525 z"
       style="fill:#91adad;fill-opacity:1;fill-rule:evenodd;stroke:none"
       id="path3025" />
    <path
       inkscape:connector-curvature="0"
       d="m 119.61846,864.26073 c -1.43787,-0.15875 -2.8045,0.28063 -3.85125,1.119 -1.04625,0.83838 -1.77337,2.076 -1.93212,3.51388 -0.15875,1.43825 0.28062,2.8045 1.119,3.85125 0.83837,1.04675 2.076,1.77337 3.51425,1.93212 1.43787,0.15913 2.80412,-0.28025 3.85087,-1.11887 1.04663,-0.83838 1.77338,-2.07613 1.9325,-3.514 0.15875,-1.43788 -0.28062,-2.8045 -1.119,-3.85113 -0.83862,-1.04675 -2.07637,-1.7735 -3.51425,-1.93225"
       style="fill:#91adad;fill-opacity:1;fill-rule:evenodd;stroke:none"
       id="path3027" />
    <path
       inkscape:connector-curvature="0"
       d="m 120.24109,870.70785 -2.637,-0.29125 -0.80537,7.2935 2.63687,0.29125 0.8055,-7.2935 z"
       style="fill:#91adad;fill-opacity:1;fill-rule:evenodd;stroke:none"
       id="path3029" />
    <path
       inkscape:connector-curvature="0"
       d="m 345.84871,853.10861 c 0,0 0,0 0,0 l -3.78325,0.22987 c 0,0 0,0 0,0 l 0.6605,10.856 c 0,0 0,0 0,0 l 3.78325,-0.23025 c 0,0 0,0 0,0 l -0.6605,-10.85562 z"
       style="fill:#91adad;fill-opacity:1;fill-rule:evenodd;stroke:none"
       id="path3031" />
    <path
       inkscape:connector-curvature="0"
       d="m 342.64271,834.61923 c 0,0 0,0 0,0 l -8.56487,24.78538 c 0,0 0,0 0,0 l 20.07112,-1.22138 c 0,0 0,0 0,0 l -11.50625,-23.564 z"
       style="fill:#91adad;fill-opacity:1;fill-rule:evenodd;stroke:none"
       id="path3033" />
    <path
       inkscape:connector-curvature="0"
       d="m 109.54134,867.83098 c 0,0 0,0 0,0 l 3.02025,0.18388 c 0,0 0,0 0,0 l -0.52725,8.66625 c 0,0 0,0 0,0 l -3.02025,-0.18388 c 0,0 0,0 0,0 l 0.52725,-8.66625 z"
       style="fill:#91adad;fill-opacity:1;fill-rule:evenodd;stroke:none"
       id="path3035" />
    <path
       inkscape:connector-curvature="0"
       d="m 112.10059,853.0706 c 0,0 0,0 0,0 l 6.83762,19.78663 c 0,0 0,0 0,0 l -16.02325,-0.97487 c 0,0 0,0 0,0 l 9.18563,-18.81176 z"
       style="fill:#91adad;fill-opacity:1;fill-rule:evenodd;stroke:none"
       id="path3037" />
    <path
       inkscape:connector-curvature="0"
       d="m 153.83871,873.04786 c 0,0 0,0 0,0 l 1.98738,0.12112 c 0,0 0,0 0,0 l -0.34688,5.70338 c 0,0 0,0 0,0 l -1.98775,-0.12088 c 0,0 0,0 0,0 l 0.34726,-5.70362 z"
       style="fill:#91adad;fill-opacity:1;fill-rule:evenodd;stroke:none"
       id="path3039" />
    <path
       inkscape:connector-curvature="0"
       d="m 155.52284,863.33385 c 0,0 0,0 0,0 l 4.5,13.02201 c 0,0 0,0 0,0 l -10.54525,-0.64175 c 0,0 0,0 0,0 l 6.04525,-12.38026 z"
       style="fill:#91adad;fill-opacity:1;fill-rule:evenodd;stroke:none"
       id="path3041" />
    <path
       inkscape:connector-curvature="0"
       d="m 129.09571,858.37286 c 0,0 0,0 0,0 l 3.44375,0.20975 c 0,0 0,0 0,0 l -1.69687,20.28975 c 0,0 0,0 0,0 l -3.44375,-0.2095 c 0,0 0,0 0,0 l 1.69687,-20.29 z"
       style="fill:#91adad;fill-opacity:1;fill-rule:evenodd;stroke:none"
       id="path3043" />
    <path
       inkscape:connector-curvature="0"
       d="m 132.01409,841.54248 c 0,0 0,0 0,0 l 7.79625,22.56163 c 0,0 0,0 0,0 l -18.27038,-1.1115 c 0,0 0,0 0,0 l 10.47413,-21.45013 z"
       style="fill:#91adad;fill-opacity:1;fill-rule:evenodd;stroke:none"
       id="path3045" />
    <path
       inkscape:connector-curvature="0"
       d="m 406.61047,843.25748 c 0,0 0,0 0,0 l -4.29876,-0.444 c 0,0 0,0 0,0 l -2.04487,25.42213 c 0,0 0,0 0,0 l 4.29913,0.44437 c 0,0 0,0 0,0 l 2.0445,-25.4225 z"
       style="fill:#91adad;fill-opacity:1;fill-rule:evenodd;stroke:none"
       id="path3047" />
    <path
       inkscape:connector-curvature="0"
       d="m 406.43922,821.86123 c 0,0 0,0 0,0 l -14.24088,26.292 c 0,0 0,0 0,0 l 22.80688,2.356 c 0,0 0,0 0,0 l -8.566,-28.648 z"
       style="fill:#91adad;fill-opacity:1;fill-rule:evenodd;stroke:none"
       id="path3049" />
    <path
       inkscape:connector-curvature="0"
       d="m 137.23759,865.81873 c 0,0 0,0 0,0 l 2.4945,-0.26287 c 0,0 0,0 0,0 l 1.21775,14.75362 c 0,0 0,0 0,0 l -2.49475,0.26288 c 0,0 0,0 0,0 l -1.2175,-14.75363 z"
       style="fill:#91adad;fill-opacity:1;fill-rule:evenodd;stroke:none"
       id="path3051" />
    <path
       inkscape:connector-curvature="0"
       d="m 137.31096,853.39911 c 0,0 0,0 0,0 l 8.298,15.24362 c 0,0 0,0 0,0 l -13.23562,1.395 c 0,0 0,0 0,0 l 4.93762,-16.63862 z"
       style="fill:#91adad;fill-opacity:1;fill-rule:evenodd;stroke:none"
       id="path3053" />
    <path
       inkscape:connector-curvature="0"
       d="m 393.32471,851.68311 c 0,0 0,0 0,0 l -3.12475,-0.32925 c 0,0 0,0 0,0 l -1.52537,18.48125 c 0,0 0,0 0,0 l 3.12512,0.32912 c 0,0 0,0 0,0 l 1.525,-18.48112 z"
       style="fill:#91adad;fill-opacity:1;fill-rule:evenodd;stroke:none"
       id="path3055" />
    <path
       inkscape:connector-curvature="0"
       d="m 393.23259,836.12586 c 0,0 0,0 0,0 l -10.39388,19.09525 c 0,0 0,0 0,0 l 16.57875,1.74712 c 0,0 0,0 0,0 l -6.18487,-20.84237 z"
       style="fill:#91adad;fill-opacity:1;fill-rule:evenodd;stroke:none"
       id="path3057" />
    <path
       inkscape:connector-curvature="0"
       d="m 149.09309,868.35936 c 0,0 0,0 0,0 l 1.5655,0.068 c 0,0 0,0 0,0 l -0.612,9.22712 c 0,0 0,0 0,0 l -1.56575,-0.068 c 0,0 0,0 0,0 l 0.61225,-9.22712 z"
       style="fill:#91adad;fill-opacity:1;fill-rule:evenodd;stroke:none"
       id="path3059" />
    <path
       inkscape:connector-curvature="0"
       d="m 150.28684,860.69335 c 0,0 0,0 0,0 l 3.71662,10.18488 c 0,0 0,0 0,0 l -8.3055,-0.36212 c 0,0 0,0 0,0 l 4.58888,-9.82276 z"
       style="fill:#91adad;fill-opacity:1;fill-rule:evenodd;stroke:none"
       id="path3061" />
  </g>
  <g
     inkscape:groupmode="layer"
     id="layer4"
     inkscape:label="plane2"
     style="display:inline"
     transform="translate(0,-680.31491)">
    <path
       inkscape:connector-curvature="0"
       d="m 240.56146,846.7146 c -4.17575,-0.12674 -8.00862,1.45176 -10.829,4.10601 -2.8205,2.65437 -4.62862,6.38437 -4.7555,10.5605 -0.12687,4.17612 1.452,8.00862 4.106,10.82912 2.65425,2.82038 6.38425,4.6285 10.56038,4.75538 4.17625,0.1265 8.009,-1.452 10.8295,-4.10625 2.8205,-2.654 4.62825,-6.384 4.75512,-10.56013 0.12675,-4.17613 -1.45175,-8.009 -4.106,-10.8295 -2.65437,-2.82037 -6.38437,-4.62825 -10.5605,-4.75513"
       style="fill:#618a8a;fill-opacity:1;fill-rule:evenodd;stroke:none"
       id="path3063" />
    <path
       inkscape:connector-curvature="0"
       d="m 243.83546,865.13098 -7.65887,-0.23238 -0.64275,21.1815 7.65887,0.23238 0.64275,-21.1815 z"
       style="fill:#618a8a;fill-opacity:1;fill-rule:evenodd;stroke:none"
       id="path3065" />
    <path
       inkscape:connector-curvature="0"
       d="m 213.52034,868.49648 c 0,0 0,0 0,0 l 4.48687,0.34188 c 0,0 0,0 0,0 l -0.98112,12.87462 c 0,0 0,0 0,0 l -4.48688,-0.342 c 0,0 0,0 0,0 l 0.98113,-12.8745 z"
       style="fill:#618a8a;fill-opacity:1;fill-rule:evenodd;stroke:none"
       id="path3067" />
    <path
       inkscape:connector-curvature="0"
       d="m 217.66246,846.60623 c 0,0 0,0 0,0 l 9.71688,29.57813 c 0,0 0,0 0,0 l -23.80438,-1.8145 c 0,0 0,0 0,0 l 14.0875,-27.76363 z"
       style="fill:#618a8a;fill-opacity:1;fill-rule:evenodd;stroke:none"
       id="path3069" />
    <path
       inkscape:connector-curvature="0"
       d="m 186.96647,867.53511 c 0,0 0,0 0,0 l 4.4975,-0.15588 c 0,0 0,0 0,0 l 0.44749,12.904 c 0,0 0,0 0,0 l -4.49712,0.15625 c 0,0 0,0 0,0 l -0.44787,-12.90437 z"
       style="fill:#618a8a;fill-opacity:1;fill-rule:evenodd;stroke:none"
       id="path3071" />
    <path
       inkscape:connector-curvature="0"
       d="m 188.66334,845.32111 c 0,0 0,0 0,0 l 12.92675,28.32299 c 0,0 0,0 0,0 l -23.8585,0.82775 c 0,0 0,0 0,0 l 10.93175,-29.15075 z"
       style="fill:#618a8a;fill-opacity:1;fill-rule:evenodd;stroke:none"
       id="path3073" />
    <path
       inkscape:connector-curvature="0"
       d="m 201.43621,851.23348 c 0,0 0,0 0,0 l 4.48701,0.34188 c 0,0 0,0 0,0 l -2.7075,30.713 c 0,0 0,0 0,0 l -4.48688,-0.34188 c 0,0 0,0 0,0 l 2.70738,-30.713 z"
       style="fill:#618a8a;fill-opacity:1;fill-rule:evenodd;stroke:none"
       id="path3075" />
    <path
       inkscape:connector-curvature="0"
       d="m 205.57834,829.34323 c 0,0 0,0 0,0 l 9.71688,29.57813 c 0,0 0,0 0,0 l -23.80426,-1.8145 c 0,0 0,0 0,0 l 14.08738,-27.76363 z"
       style="fill:#618a8a;fill-opacity:1;fill-rule:evenodd;stroke:none"
       id="path3077" />
    <path
       inkscape:connector-curvature="0"
       d="m 166.13009,838.61573 c -4.66125,0.45525 -8.6975,2.75775 -11.4545,6.1115 -2.757,3.35375 -4.235,7.75912 -3.77963,12.42038 0.45525,4.6615 2.75776,8.69775 6.11151,11.45475 3.35374,2.75675 7.75912,4.23462 12.42037,3.77925 4.6615,-0.45488 8.69775,-2.75738 11.45475,-6.11138 2.75675,-3.35375 4.23462,-7.75925 3.77937,-12.42037 -0.45537,-4.66163 -2.7575,-8.69751 -6.1115,-11.4545 -3.35375,-2.757 -7.75924,-4.235 -12.42037,-3.77963"
       style="fill:#618a8a;fill-opacity:1;fill-rule:evenodd;stroke:none"
       id="path3079" />
    <path
       inkscape:connector-curvature="0"
       d="m 171.45959,862.3126 -5.973,0.80438 1.61325,22.76963 5.973,-0.804 -1.61325,-22.77001 z"
       style="fill:#618a8a;fill-opacity:1;fill-rule:evenodd;stroke:none"
       id="path3081" />
    <path
       inkscape:connector-curvature="0"
       d="m 99.962337,888.24148 c 101.315883,-25.09187 209.477503,13.59113 324.484753,0 0,15.974 0,31.94825 0,47.92287 -108.16163,0 -216.32312,0 -324.484753,0 0,-15.97462 0,-31.94887 0,-47.92287"
       style="fill:#618a8a;fill-opacity:1;fill-rule:evenodd;stroke:none"
       id="path3083" />
  </g>
  <g
     inkscape:groupmode="layer"
     id="layer5"
     inkscape:label="plane3"
     transform="translate(0,-680.31491)">
    <path
       inkscape:connector-curvature="0"
       d="m 313.10434,887.17385 c -2.50725,0.003 -4.77675,1.02126 -6.41875,2.66601 -1.642,1.64487 -2.65675,3.91612 -2.65425,6.42337 0.002,2.50725 1.02075,4.77675 2.66563,6.41862 1.64512,1.642 3.91637,2.65688 6.42324,2.65438 2.50726,-0.003 4.77675,-1.02088 6.41875,-2.66563 1.642,-1.64525 2.65675,-3.9165 2.65425,-6.42375 -0.002,-2.50725 -1.02075,-4.77637 -2.66562,-6.41824 -1.64513,-1.64201 -3.916,-2.65688 -6.42325,-2.65476"
       style="fill:#4c7878;fill-opacity:1;fill-rule:evenodd;stroke:none"
       id="path3085" />
    <path
       inkscape:connector-curvature="0"
       d="m 315.41309,898.15923 -4.59813,0.004 0.0113,12.71725 4.59813,-0.004 -0.0113,-12.71687 z"
       style="fill:#4c7878;fill-opacity:1;fill-rule:evenodd;stroke:none"
       id="path3087" />
    <path
       inkscape:connector-curvature="0"
       d="m 282.69922,877.65623 c 0,0 0,0 0,0 l 8.34912,-0.916 c 0,0 0,0 0,0 l 2.62838,23.95637 c 0,0 0,0 0,0 l -8.34913,0.91588 c 0,0 0,0 0,0 l -2.62837,-23.95625 z"
       style="fill:#4c7878;fill-opacity:1;fill-rule:evenodd;stroke:none"
       id="path3089" />
    <path
       inkscape:connector-curvature="0"
       d="m 282.76796,836.07373 c 0,0 0,0 0,0 l 27.9995,50.91875 c 0,0 0,0 0,0 l -44.29275,4.85963 c 0,0 0,0 0,0 l 16.29326,-55.77838 z"
       style="fill:#4c7878;fill-opacity:1;fill-rule:evenodd;stroke:none"
       id="path3091" />
    <path
       inkscape:connector-curvature="0"
       d="m 262.51621,890.57198 c 0,0 0,0 0,0 l 5.39425,-0.59175 c 0,0 0,0 0,0 l 1.69838,15.47825 c 0,0 0,0 0,0 l -5.39438,0.59175 c 0,0 0,0 0,0 l -1.69825,-15.47825 z"
       style="fill:#4c7878;fill-opacity:1;fill-rule:evenodd;stroke:none"
       id="path3093" />
    <path
       inkscape:connector-curvature="0"
       d="m 262.56046,863.70548 c 0,0 0,0 0,0 l 18.09075,32.89862 c 0,0 0,0 0,0 l -28.61762,3.14 c 0,0 0,0 0,0 l 10.52687,-36.03862 z"
       style="fill:#4c7878;fill-opacity:1;fill-rule:evenodd;stroke:none"
       id="path3095" />
    <path
       inkscape:connector-curvature="0"
       d="m 128.49334,902.44161 c 0,0 0,0 0,0 l 5.41675,0.32962 c 0,0 0,0 0,0 l -0.94538,15.54237 c 0,0 0,0 0,0 l -5.41662,-0.32962 c 0,0 0,0 0,0 l 0.94525,-15.54237 z"
       style="fill:#4c7878;fill-opacity:1;fill-rule:evenodd;stroke:none"
       id="path3097" />
    <path
       inkscape:connector-curvature="0"
       d="m 133.08371,875.97036 c 0,0 0,0 0,0 l 12.26238,35.4855 c 0,0 0,0 0,0 l -28.73587,-1.74825 c 0,0 0,0 0,0 l 16.4735,-33.73725 z"
       style="fill:#4c7878;fill-opacity:1;fill-rule:evenodd;stroke:none"
       id="path3099" />
    <path
       inkscape:connector-curvature="0"
       d="m 363.89159,852.52423 c -5.14663,-0.4695 -9.99713,1.19237 -13.67825,4.258 -3.68113,3.066 -6.193,7.53588 -6.66213,12.68225 -0.4695,5.14663 1.19238,9.99713 4.258,13.67825 3.06601,3.68113 7.53588,6.193 12.68225,6.66213 5.14663,0.4695 9.997,-1.19238 13.67826,-4.258 3.68112,-3.066 6.19287,-7.53563 6.66212,-12.68225 0.46937,-5.14663 -1.19237,-9.99713 -4.258,-13.67825 -3.06612,-3.68113 -7.536,-6.193 -12.68225,-6.66213"
       style="fill:#4c7878;fill-opacity:1;fill-rule:evenodd;stroke:none"
       id="path3101" />
    <path
       inkscape:connector-curvature="0"
       d="m 365.26746,875.50723 -7.38387,-0.86062 -1.86237,26.10387 7.38387,0.86063 1.86237,-26.10388 z"
       style="fill:#4c7878;fill-opacity:1;fill-rule:evenodd;stroke:none"
       id="path3103" />
    <path
       inkscape:connector-curvature="0"
       d="m 341.82534,867.06561 c -3.83775,0.004 -7.31125,1.56262 -9.82425,4.08012 -2.51325,2.51788 -4.06625,5.99388 -4.06275,9.83162 0.004,3.83776 1.56262,7.31088 4.08012,9.82425 2.51788,2.51326 5.99425,4.06625 9.83163,4.06276 3.83737,-0.004 7.31087,-1.56263 9.82412,-4.08013 2.51338,-2.51787 4.06638,-5.99425 4.06275,-9.83162 -0.004,-3.83775 -1.5625,-7.31125 -4.08,-9.82425 -2.51787,-2.51325 -5.99425,-4.06625 -9.83162,-4.06275"
       style="fill:#4c7878;fill-opacity:1;fill-rule:evenodd;stroke:none"
       id="path3105" />
    <path
       inkscape:connector-curvature="0"
       d="m 343.67946,883.87898 -3.67012,0.006 0.009,19.4645 3.6705,-0.006 -0.009,-19.46475 z"
       style="fill:#4c7878;fill-opacity:1;fill-rule:evenodd;stroke:none"
       id="path3107" />
    <path
       inkscape:connector-curvature="0"
       d="m 424.44709,903.07661 c -101.31588,-17.32388 -209.4775,9.38412 -324.484753,0 0,11.02925 0,22.0585 0,33.08774 108.161633,0 216.323123,0 324.484753,0 0,-11.02924 0,-22.05849 0,-33.08774"
       style="fill:#4c7878;fill-opacity:1;fill-rule:evenodd;stroke:none"
       id="path3109" />
  </g>
</svg>
